<svg xmlns="http://www.w3.org/2000/svg" version="1.1" xmlns:xlink="http://www.w3.org/1999/xlink" xmlns:svgjs="http://svgjs.com/svgjs" width="1440" height="560" preserveAspectRatio="none" viewBox="0 0 1440 560">
    <g mask="url(&quot;#SvgjsMask1002&quot;)" fill="none">
        <rect width="1440" height="560" x="0" y="0" fill="rgba(73, 46, 95, 0.1)"></rect>
        <path d="M0,605.223C109.493,579.574,155.022,449.223,249.96,388.946C345.71,328.153,484.614,342.581,554.439,253.204C627.722,159.401,659.185,23.982,623.9,-89.703C589.361,-200.983,468.15,-254.946,374.998,-324.938C300.262,-381.093,221.5,-423.732,134.346,-457.541C39.395,-494.374,-56.758,-554.27,-155.879,-530.874C-256.072,-507.225,-330.846,-421.448,-386.226,-334.667C-437.05,-255.025,-420.349,-153.768,-453.086,-65.144C-497.957,56.325,-637.914,152.959,-613.317,280.093C-589.453,403.441,-449.563,467.967,-338.561,526.811C-234.097,582.189,-115.119,632.19,0,605.223" fill="rgba(56, 35, 73, 0.75)"></path>
        <path d="M1440 1201.484C1564.3319999999999 1204.792 1686.155 1172.745 1794.254 1111.23 1906.491 1047.3609999999999 2018.562 965.953 2065.385 845.604 2111.389 727.36 2065.5370000000003 598.139 2042.414 473.38599999999997 2020.2269999999999 353.68 2018.115 219.88600000000002 1933.233 132.611 1849.4479999999999 46.464000000000055 1718.3690000000001 33.42999999999995 1599.23 17.711000000000013 1494.293 3.865000000000009 1386.398 4.93100000000004 1289.571 47.684999999999945 1199.296 87.54500000000002 1141.462 170.801 1079.172 247.341 1018.788 321.539 965.6700000000001 397.402 932.068 486.97 891.014 596.402 832.202 710.755 863.023 823.4970000000001 895.061 940.691 996.03 1026.117 1097.658 1092.6950000000002 1199.887 1159.667 1317.83 1198.233 1440 1201.484" fill="rgba(90, 57, 117, 0.75)"></path>
    </g>
    <defs>
        <mask id="SvgjsMask1002">
            <rect width="1440" height="560" fill="#fff"></rect>
        </mask>
    </defs>
</svg>