<svg xmlns="http://www.w3.org/2000/svg" xmlns:xlink="http://www.w3.org/1999/xlink" style="margin:auto;background:rgba(1, 44, 50, 0);display:block;z-index:1;position:relative" width="1545" height="1125" preserveAspectRatio="xMidYMid" viewBox="0 0 1545 1125">
<g transform="translate(772.5,562.5) scale(1,1) translate(-772.5,-562.5)"><path d="M-100 535.82C-65.26 521.85 -66.65 536.18 -39.83 536.18S-2.18 491.34 20.34 491.34S50.77 520.89 80.52 520.89S113.38 525.01 140.69 525.01S176.87 521.7 200.86 521.7S234.9 498.48 261.03 498.48S297.5 510.97 321.21 510.97S358.66 521.66 381.38 521.66S416.41 547.86 441.55 547.86S477.81 517.08 501.72 517.08S536.46 541.38 561.9 541.38S595.37 511.02 622.07 511.02S655.52 524 682.24 524S715.48 494.1 742.41 494.1S776.6 545.65 802.59 545.65S835.35 543.59 862.76 543.59S899.84 527.19 922.93 527.19S956.36 513.59 983.1 513.59S1017.25 498.93 1043.28 498.93S1075.94 487.41 1103.45 487.41S1137.39 499.76 1163.62 499.76S1199.13 484.78 1223.79 484.78S1260.11 489.62 1283.97 489.62S1315.87 497.8 1344.14 497.8S1375.02 510.73 1404.31 510.73S1437.08 544.93 1464.48 544.93S1496.4 526.68 1524.66 526.68S1556.15 485.78 1584.83 485.78S1615.58 523.05 1645 523.05S1682.65 524.47 1705.17 524.47L1645 1125 L-100 1125 Z" fill="#300404" stroke-width="0">
  <animate attributeName="d" dur="11.688311688311687s" repeatCount="indefinite" values="M-100 535.82C-65.26 521.85 -66.65 536.18 -39.83 536.18S-2.18 491.34 20.34 491.34S50.77 520.89 80.52 520.89S113.38 525.01 140.69 525.01S176.87 521.7 200.86 521.7S234.9 498.48 261.03 498.48S297.5 510.97 321.21 510.97S358.66 521.66 381.38 521.66S416.41 547.86 441.55 547.86S477.81 517.08 501.72 517.08S536.46 541.38 561.9 541.38S595.37 511.02 622.07 511.02S655.52 524 682.24 524S715.48 494.1 742.41 494.1S776.6 545.65 802.59 545.65S835.35 543.59 862.76 543.59S899.84 527.19 922.93 527.19S956.36 513.59 983.1 513.59S1017.25 498.93 1043.28 498.93S1075.94 487.41 1103.45 487.41S1137.39 499.76 1163.62 499.76S1199.13 484.78 1223.79 484.78S1260.11 489.62 1283.97 489.62S1315.87 497.8 1344.14 497.8S1375.02 510.73 1404.31 510.73S1437.08 544.93 1464.48 544.93S1496.4 526.68 1524.66 526.68S1556.15 485.78 1584.83 485.78S1615.58 523.05 1645 523.05S1682.65 524.47 1705.17 524.47L1645 1125 L-100 1125 Z;M-100 536.21C-66.68 559.46 -64.3 539.2 -39.83 539.2S-5.26 495.03 20.34 495.03S54.34 503.81 80.52 503.81S114.83 556.03 140.69 556.03S177.79 507.75 200.86 507.75S236.97 522.46 261.03 522.46S297.22 520.51 321.21 520.51S354.84 535.98 381.38 535.98S413.63 540.22 441.55 540.22S476.91 510.66 501.72 510.66S533.08 508.81 561.9 508.81S596.78 533.07 622.07 533.07S658.63 556.71 682.24 556.71S713.75 520.62 742.41 520.62S773.13 530.24 802.59 530.24S839.34 490.75 862.76 490.75S896.19 556.37 922.93 556.37S958.99 525.65 983.1 525.65S1018.72 542.16 1043.28 542.16S1075.28 544.24 1103.45 544.24S1135.9 539.99 1163.62 539.99S1194.34 545.99 1223.79 545.99S1258.81 520.37 1283.97 520.37S1315.26 510.1 1344.14 510.1S1377.7 556.78 1404.31 556.78S1437.07 495.41 1464.48 495.41S1499.58 518.98 1524.66 518.98S1557.06 484.16 1584.83 484.16S1618.97 557.76 1645 557.76S1679.29 520.94 1705.17 520.94L1645 1125 L-100 1125 Z;M-100 535.82C-65.26 521.85 -66.65 536.18 -39.83 536.18S-2.18 491.34 20.34 491.34S50.77 520.89 80.52 520.89S113.38 525.01 140.69 525.01S176.87 521.7 200.86 521.7S234.9 498.48 261.03 498.48S297.5 510.97 321.21 510.97S358.66 521.66 381.38 521.66S416.41 547.86 441.55 547.86S477.81 517.08 501.72 517.08S536.46 541.38 561.9 541.38S595.37 511.02 622.07 511.02S655.52 524 682.24 524S715.48 494.1 742.41 494.1S776.6 545.65 802.59 545.65S835.35 543.59 862.76 543.59S899.84 527.19 922.93 527.19S956.36 513.59 983.1 513.59S1017.25 498.93 1043.28 498.93S1075.94 487.41 1103.45 487.41S1137.39 499.76 1163.62 499.76S1199.13 484.78 1223.79 484.78S1260.11 489.62 1283.97 489.62S1315.87 497.8 1344.14 497.8S1375.02 510.73 1404.31 510.73S1437.08 544.93 1464.48 544.93S1496.4 526.68 1524.66 526.68S1556.15 485.78 1584.83 485.78S1615.58 523.05 1645 523.05S1682.65 524.47 1705.17 524.47L1645 1125 L-100 1125 Z"></animate>
  <animateTransform attributeName="transform" type="translate" dur="11.688311688311687s" begin="0s" repeatCount="indefinite" values="0;10;0" calcMode="spline" keySplines="0.3 0 0.7 1;0.3 0 0.7 1"></animateTransform>
</path><path d="M-100 530.36C-62.87 537.67 -65.02 540.86 -38.05 540.86S-4.99 531.32 23.91 531.32S57.27 589 85.86 589S118.35 516.34 147.81 516.34S182.55 587.7 209.76 587.7S247.43 554.01 271.72 554.01S305.92 522.54 333.67 522.54S371.95 552.81 395.62 552.81S429.72 526.01 457.57 526.01S492.42 593.22 519.53 593.22S552.04 546.6 581.48 546.6S617.83 523.04 643.43 523.04S678.5 531.35 705.38 531.35S741.87 526.4 767.34 526.4S801.39 588.01 829.29 588.01S864.25 561.7 891.24 561.7S925.48 557.99 953.2 557.99S989.15 517.72 1015.15 517.72S1052.36 566.31 1077.1 566.31S1109.64 546.6 1139.05 546.6S1170.41 555.01 1201.01 555.01S1238.01 556.49 1262.96 556.49S1298.65 521.89 1324.91 521.89S1358.72 558.15 1386.86 558.15S1419.13 589.28 1448.82 589.28S1480.32 514.27 1510.77 514.27S1544.35 543.09 1572.72 543.09S1604.18 548.56 1634.67 548.56S1670.93 539.3 1696.63 539.3L1645 1125 L-100 1125 Z" fill="#480f12" stroke-width="0">
  <animate attributeName="d" dur="10.38961038961039s" repeatCount="indefinite" values="M-100 530.36C-62.87 537.67 -65.02 540.86 -38.05 540.86S-4.99 531.32 23.91 531.32S57.27 589 85.86 589S118.35 516.34 147.81 516.34S182.55 587.7 209.76 587.7S247.43 554.01 271.72 554.01S305.92 522.54 333.67 522.54S371.95 552.81 395.62 552.81S429.72 526.01 457.57 526.01S492.42 593.22 519.53 593.22S552.04 546.6 581.48 546.6S617.83 523.04 643.43 523.04S678.5 531.35 705.38 531.35S741.87 526.4 767.34 526.4S801.39 588.01 829.29 588.01S864.25 561.7 891.24 561.7S925.48 557.99 953.2 557.99S989.15 517.72 1015.15 517.72S1052.36 566.31 1077.1 566.31S1109.64 546.6 1139.05 546.6S1170.41 555.01 1201.01 555.01S1238.01 556.49 1262.96 556.49S1298.65 521.89 1324.91 521.89S1358.72 558.15 1386.86 558.15S1419.13 589.28 1448.82 589.28S1480.32 514.27 1510.77 514.27S1544.35 543.09 1572.72 543.09S1604.18 548.56 1634.67 548.56S1670.93 539.3 1696.63 539.3L1645 1125 L-100 1125 Z;M-100 565.19C-63.2 568.62 -62.67 548.73 -38.05 548.73S-5.99 566.01 23.91 566.01S61.53 586.97 85.86 586.97S117.1 514.75 147.81 514.75S183.25 534.96 209.76 534.96S247.86 531.1 271.72 531.1S303.38 559.61 333.67 559.61S371.05 540.54 395.62 540.54S430.62 551.17 457.57 551.17S495.34 569.52 519.53 569.52S557.51 579.78 581.48 579.78S614.9 560.41 643.43 560.41S677.45 564.97 705.38 564.97S738.89 572.05 767.34 572.05S802.86 534.22 829.29 534.22S867.25 581.5 891.24 581.5S928.66 531.18 953.2 531.18S984.3 573.78 1015.15 573.78S1047.9 587.81 1077.1 587.81S1110.45 535.38 1139.05 535.38S1177.13 523.64 1201.01 523.64S1239.48 585.33 1262.96 585.33S1301.4 589.83 1324.91 589.83S1359.02 575.63 1386.86 575.63S1423.23 582.22 1448.82 582.22S1483.85 518.52 1510.77 518.52S1545.28 545.35 1572.72 545.35S1607.34 531.78 1634.67 531.78S1666.45 582.35 1696.63 582.35L1645 1125 L-100 1125 Z;M-100 530.36C-62.87 537.67 -65.02 540.86 -38.05 540.86S-4.99 531.32 23.91 531.32S57.27 589 85.86 589S118.35 516.34 147.81 516.34S182.55 587.7 209.76 587.7S247.43 554.01 271.72 554.01S305.92 522.54 333.67 522.54S371.95 552.81 395.62 552.81S429.72 526.01 457.57 526.01S492.42 593.22 519.53 593.22S552.04 546.6 581.48 546.6S617.83 523.04 643.43 523.04S678.5 531.35 705.38 531.35S741.87 526.4 767.34 526.4S801.39 588.01 829.29 588.01S864.25 561.7 891.24 561.7S925.48 557.99 953.2 557.99S989.15 517.72 1015.15 517.72S1052.36 566.31 1077.1 566.31S1109.64 546.6 1139.05 546.6S1170.41 555.01 1201.01 555.01S1238.01 556.49 1262.96 556.49S1298.65 521.89 1324.91 521.89S1358.72 558.15 1386.86 558.15S1419.13 589.28 1448.82 589.28S1480.32 514.27 1510.77 514.27S1544.35 543.09 1572.72 543.09S1604.18 548.56 1634.67 548.56S1670.93 539.3 1696.63 539.3L1645 1125 L-100 1125 Z"></animate>
  <animateTransform attributeName="transform" type="translate" dur="10.38961038961039s" begin="-1.1544011544011543s" repeatCount="indefinite" values="0;10;0" calcMode="spline" keySplines="0.3 0 0.7 1;0.3 0 0.7 1"></animateTransform>
</path><path d="M-100 547.61C-64.86 588.39 -63.18 591.07 -36.16 591.07S3.29 617.77 27.68 617.77S60.45 604.18 91.52 604.18S129.54 563.79 155.37 563.79S192.45 579.08 219.21 579.08S254.92 616.94 283.05 616.94S318.4 584.48 346.89 584.48S383.35 562.05 410.73 562.05S442.95 602.8 474.57 602.8S511.26 563.31 538.41 563.31S576.34 619.73 602.26 619.73S640.74 593.14 666.1 593.14S705.58 556.35 729.94 556.35S768.68 555.64 793.78 555.64S828.78 545.84 857.62 545.84S895.08 579.38 921.46 579.38S955.19 600.11 985.3 600.11S1018.86 595.11 1049.15 595.11S1086.29 611.23 1112.99 611.23S1152.4 581.5 1176.83 581.5S1210.5 568.68 1240.67 568.68S1278.21 612.34 1304.51 612.34S1341.87 560.58 1368.35 560.58S1401.82 565.63 1432.2 565.63S1466.91 560.14 1496.04 560.14S1532.42 597.49 1559.88 597.49S1596.6 624.26 1623.72 624.26S1658.5 609.09 1687.56 609.09L1645 1125 L-100 1125 Z" fill="#611c19" stroke-width="0">
  <animate attributeName="d" dur="9.09090909090909s" repeatCount="indefinite" values="M-100 547.61C-64.86 588.39 -63.18 591.07 -36.16 591.07S3.29 617.77 27.68 617.77S60.45 604.18 91.52 604.18S129.54 563.79 155.37 563.79S192.45 579.08 219.21 579.08S254.92 616.94 283.05 616.94S318.4 584.48 346.89 584.48S383.35 562.05 410.73 562.05S442.95 602.8 474.57 602.8S511.26 563.31 538.41 563.31S576.34 619.73 602.26 619.73S640.74 593.14 666.1 593.14S705.58 556.35 729.94 556.35S768.68 555.64 793.78 555.64S828.78 545.84 857.62 545.84S895.08 579.38 921.46 579.38S955.19 600.11 985.3 600.11S1018.86 595.11 1049.15 595.11S1086.29 611.23 1112.99 611.23S1152.4 581.5 1176.83 581.5S1210.5 568.68 1240.67 568.68S1278.21 612.34 1304.51 612.34S1341.87 560.58 1368.35 560.58S1401.82 565.63 1432.2 565.63S1466.91 560.14 1496.04 560.14S1532.42 597.49 1559.88 597.49S1596.6 624.26 1623.72 624.26S1658.5 609.09 1687.56 609.09L1645 1125 L-100 1125 Z;M-100 573.66C-61.09 587.98 -60.61 583.45 -36.16 583.45S-2.96 619.68 27.68 619.68S60.8 570.11 91.52 570.11S126.78 547.98 155.37 547.98S193.64 590.76 219.21 590.76S251.9 578.27 283.05 578.27S315.8 554.81 346.89 554.81S380.14 544.07 410.73 544.07S445.88 626.2 474.57 626.2S508.09 545.98 538.41 545.98S570.58 594.48 602.26 594.48S636.64 552.98 666.1 552.98S704.84 551.91 729.94 551.91S769.34 594.18 793.78 594.18S830.72 603.41 857.62 603.41S895.78 565.76 921.46 565.76S956.56 623.58 985.3 623.58S1024.09 584.12 1049.15 584.12S1085.37 565.83 1112.99 565.83S1150.97 560.06 1176.83 560.06S1212.47 576.78 1240.67 576.78S1279.51 598.42 1304.51 598.42S1338.49 554.79 1368.35 554.79S1405.94 579.83 1432.2 579.83S1471.16 582.76 1496.04 582.76S1528.61 549.39 1559.88 549.39S1595.15 592.23 1623.72 592.23S1659.36 617.47 1687.56 617.47L1645 1125 L-100 1125 Z;M-100 547.61C-64.86 588.39 -63.18 591.07 -36.16 591.07S3.29 617.77 27.68 617.77S60.45 604.18 91.52 604.18S129.54 563.79 155.37 563.79S192.45 579.08 219.21 579.08S254.92 616.94 283.05 616.94S318.4 584.48 346.89 584.48S383.35 562.05 410.73 562.05S442.95 602.8 474.57 602.8S511.26 563.31 538.41 563.31S576.34 619.73 602.26 619.73S640.74 593.14 666.1 593.14S705.58 556.35 729.94 556.35S768.68 555.64 793.78 555.64S828.78 545.84 857.62 545.84S895.08 579.38 921.46 579.38S955.19 600.11 985.3 600.11S1018.86 595.11 1049.15 595.11S1086.29 611.23 1112.99 611.23S1152.4 581.5 1176.83 581.5S1210.5 568.68 1240.67 568.68S1278.21 612.34 1304.51 612.34S1341.87 560.58 1368.35 560.58S1401.82 565.63 1432.2 565.63S1466.91 560.14 1496.04 560.14S1532.42 597.49 1559.88 597.49S1596.6 624.26 1623.72 624.26S1658.5 609.09 1687.56 609.09L1645 1125 L-100 1125 Z"></animate>
  <animateTransform attributeName="transform" type="translate" dur="9.09090909090909s" begin="-2.02020202020202s" repeatCount="indefinite" values="0;10;0" calcMode="spline" keySplines="0.3 0 0.7 1;0.3 0 0.7 1"></animateTransform>
</path><path d="M-100 575.88C-64.07 595.11 -60.7 636.35 -34.15 636.35S-0.87 624.63 31.7 624.63S68.57 644.8 97.55 644.8S136.29 638.9 163.4 638.9S202.23 657.41 229.25 657.41S265.07 610.13 295.09 610.13S335.45 652.72 360.94 652.72S397.05 603.6 426.79 603.6S466.97 631.43 492.64 631.43S529.59 664.64 558.49 664.64S598.04 591.71 624.34 591.71S658.77 577.05 690.19 577.05S728.39 603 756.04 603S792.01 633.15 821.89 633.15S861.41 631.46 887.74 631.46S924.73 613.24 953.58 613.24S987.85 602.4 1019.43 602.4S1053.52 641 1085.28 641S1120.47 609.01 1151.13 609.01S1190.86 581.48 1216.98 581.48S1254.39 653.01 1282.83 653.01S1320.51 664.7 1348.68 664.7S1384.27 650.18 1414.53 650.18S1449.04 644.44 1480.38 644.44S1519.33 664.98 1546.23 664.98S1585.62 617.55 1612.08 617.55S1647.77 601.57 1677.92 601.57L1645 1125 L-100 1125 Z" fill="#7a2b1e" stroke-width="0">
  <animate attributeName="d" dur="7.792207792207792s" repeatCount="indefinite" values="M-100 575.88C-64.07 595.11 -60.7 636.35 -34.15 636.35S-0.87 624.63 31.7 624.63S68.57 644.8 97.55 644.8S136.29 638.9 163.4 638.9S202.23 657.41 229.25 657.41S265.07 610.13 295.09 610.13S335.45 652.72 360.94 652.72S397.05 603.6 426.79 603.6S466.97 631.43 492.64 631.43S529.59 664.64 558.49 664.64S598.04 591.71 624.34 591.71S658.77 577.05 690.19 577.05S728.39 603 756.04 603S792.01 633.15 821.89 633.15S861.41 631.46 887.74 631.46S924.73 613.24 953.58 613.24S987.85 602.4 1019.43 602.4S1053.52 641 1085.28 641S1120.47 609.01 1151.13 609.01S1190.86 581.48 1216.98 581.48S1254.39 653.01 1282.83 653.01S1320.51 664.7 1348.68 664.7S1384.27 650.18 1414.53 650.18S1449.04 644.44 1480.38 644.44S1519.33 664.98 1546.23 664.98S1585.62 617.55 1612.08 617.55S1647.77 601.57 1677.92 601.57L1645 1125 L-100 1125 Z;M-100 631.74C-62.31 608.6 -62.94 650.34 -34.15 650.34S-0.99 579.77 31.7 579.77S67.35 623.78 97.55 623.78S138.02 638.2 163.4 638.2S203.75 624.13 229.25 624.13S263.04 604.08 295.09 604.08S329.48 597.02 360.94 597.02S397.35 628.3 426.79 628.3S466.72 590.71 492.64 590.71S526.13 620.51 558.49 620.51S596.7 632.74 624.34 632.74S662.3 614.82 690.19 614.82S729.49 659.35 756.04 659.35S790.37 583.26 821.89 583.26S856.43 603.47 887.74 603.47S923.59 601.74 953.58 601.74S990.22 605.51 1019.43 605.51S1056.25 645.12 1085.28 645.12S1123.21 598.97 1151.13 598.97S1185.04 606.64 1216.98 606.64S1254.41 645.41 1282.83 645.41S1317.73 641.04 1348.68 641.04S1383.05 663.57 1414.53 663.57S1448.23 596.47 1480.38 596.47S1513.81 609.88 1546.23 609.88S1586.34 643.64 1612.08 643.64S1649.23 600.99 1677.92 600.99L1645 1125 L-100 1125 Z;M-100 575.88C-64.07 595.11 -60.7 636.35 -34.15 636.35S-0.87 624.63 31.7 624.63S68.57 644.8 97.55 644.8S136.29 638.9 163.4 638.9S202.23 657.41 229.25 657.41S265.07 610.13 295.09 610.13S335.45 652.72 360.94 652.72S397.05 603.6 426.79 603.6S466.97 631.43 492.64 631.43S529.59 664.64 558.49 664.64S598.04 591.71 624.34 591.71S658.77 577.05 690.19 577.05S728.39 603 756.04 603S792.01 633.15 821.89 633.15S861.41 631.46 887.74 631.46S924.73 613.24 953.58 613.24S987.85 602.4 1019.43 602.4S1053.52 641 1085.28 641S1120.47 609.01 1151.13 609.01S1190.86 581.48 1216.98 581.48S1254.39 653.01 1282.83 653.01S1320.51 664.7 1348.68 664.7S1384.27 650.18 1414.53 650.18S1449.04 644.44 1480.38 644.44S1519.33 664.98 1546.23 664.98S1585.62 617.55 1612.08 617.55S1647.77 601.57 1677.92 601.57L1645 1125 L-100 1125 Z"></animate>
  <animateTransform attributeName="transform" type="translate" dur="7.792207792207792s" begin="-2.5974025974025974s" repeatCount="indefinite" values="0;10;0" calcMode="spline" keySplines="0.3 0 0.7 1;0.3 0 0.7 1"></animateTransform>
</path><path d="M-100 653.31C-59.59 608.55 -63.59 659.98 -32.01 659.98S3.8 642.56 35.97 642.56S76.41 696.29 103.96 696.29S143.1 672.45 171.95 672.45S210.16 617.39 239.94 617.39S275.53 683.85 307.92 683.85S344.16 633.23 375.91 633.23S411.26 641.56 443.9 641.56S485.47 610.37 511.88 610.37S547.43 611.04 579.87 611.04S620.02 689.1 647.86 689.1S687.82 633.98 715.84 633.98S752.43 623.86 783.83 623.86S823.61 605.3 851.82 605.3S893.34 623.43 919.81 623.43S956.84 665.37 987.79 665.37S1026.46 653.23 1055.78 653.23S1092.13 644.84 1123.77 644.84S1157.86 639.7 1191.75 639.7S1233 615.29 1259.74 615.29S1300.35 645.52 1327.73 645.52S1367.21 631.64 1395.71 631.64S1436.19 634.41 1463.7 634.41S1503.25 612.28 1531.69 612.28S1566.97 699.22 1599.68 699.22S1636.4 618.62 1667.66 618.62L1645 1125 L-100 1125 Z" fill="#933c21" stroke-width="0">
  <animate attributeName="d" dur="6.4935064935064934s" repeatCount="indefinite" values="M-100 653.31C-59.59 608.55 -63.59 659.98 -32.01 659.98S3.8 642.56 35.97 642.56S76.41 696.29 103.96 696.29S143.1 672.45 171.95 672.45S210.16 617.39 239.94 617.39S275.53 683.85 307.92 683.85S344.16 633.23 375.91 633.23S411.26 641.56 443.9 641.56S485.47 610.37 511.88 610.37S547.43 611.04 579.87 611.04S620.02 689.1 647.86 689.1S687.82 633.98 715.84 633.98S752.43 623.86 783.83 623.86S823.61 605.3 851.82 605.3S893.34 623.43 919.81 623.43S956.84 665.37 987.79 665.37S1026.46 653.23 1055.78 653.23S1092.13 644.84 1123.77 644.84S1157.86 639.7 1191.75 639.7S1233 615.29 1259.74 615.29S1300.35 645.52 1327.73 645.52S1367.21 631.64 1395.71 631.64S1436.19 634.41 1463.7 634.41S1503.25 612.28 1531.69 612.28S1566.97 699.22 1599.68 699.22S1636.4 618.62 1667.66 618.62L1645 1125 L-100 1125 Z;M-100 627.2C-60.88 651.34 -65.66 657.64 -32.01 657.64S8.38 673.03 35.97 673.03S70.89 639.17 103.96 639.17S141.87 672.86 171.95 672.86S212.75 697.09 239.94 697.09S278.03 661.76 307.92 661.76S348.38 663.62 375.91 663.62S416.16 667.22 443.9 667.22S483.48 644.94 511.88 644.94S546.01 649.59 579.87 649.59S621.46 618.75 647.86 618.75S681.88 688.45 715.84 688.45S756.43 672.93 783.83 672.93S822.09 614.68 851.82 614.68S888.04 608.57 919.81 608.57S956.66 653.33 987.79 653.33S1026.92 686.49 1055.78 686.49S1095.91 613.91 1123.77 613.91S1158.65 675.47 1191.75 675.47S1227.57 608 1259.74 608S1299.24 663.27 1327.73 663.27S1362.42 622.55 1395.71 622.55S1434.07 685.41 1463.7 685.41S1503.85 618.57 1531.69 618.57S1569.53 640.54 1599.68 640.54S1638.13 662.42 1667.66 662.42L1645 1125 L-100 1125 Z;M-100 653.31C-59.59 608.55 -63.59 659.98 -32.01 659.98S3.8 642.56 35.97 642.56S76.41 696.29 103.96 696.29S143.1 672.45 171.95 672.45S210.16 617.39 239.94 617.39S275.53 683.85 307.92 683.85S344.16 633.23 375.91 633.23S411.26 641.56 443.9 641.56S485.47 610.37 511.88 610.37S547.43 611.04 579.87 611.04S620.02 689.1 647.86 689.1S687.82 633.98 715.84 633.98S752.43 623.86 783.83 623.86S823.61 605.3 851.82 605.3S893.34 623.43 919.81 623.43S956.84 665.37 987.79 665.37S1026.46 653.23 1055.78 653.23S1092.13 644.84 1123.77 644.84S1157.86 639.7 1191.75 639.7S1233 615.29 1259.74 615.29S1300.35 645.52 1327.73 645.52S1367.21 631.64 1395.71 631.64S1436.19 634.41 1463.7 634.41S1503.25 612.28 1531.69 612.28S1566.97 699.22 1599.68 699.22S1636.4 618.62 1667.66 618.62L1645 1125 L-100 1125 Z"></animate>
  <animateTransform attributeName="transform" type="translate" dur="6.4935064935064934s" begin="-2.886002886002886s" repeatCount="indefinite" values="0;10;0" calcMode="spline" keySplines="0.3 0 0.7 1;0.3 0 0.7 1"></animateTransform>
</path><path d="M-100 692.57C-61.87 656.19 -63.46 700.67 -29.73 700.67S11.24 733.31 40.54 733.31S83.03 715.54 110.81 715.54S150.77 697.38 181.07 697.38S219.26 674.17 251.34 674.17S288.85 655.8 321.61 655.8S361.42 640.48 391.88 640.48S432.95 726.94 462.15 726.94S502.98 723.39 532.42 723.39S571.54 646.78 602.68 646.78S640.45 706.21 672.95 706.21S715.08 688.78 743.22 688.78S780.56 697.32 813.49 697.32S850.69 674.18 883.76 674.18S919.9 667.8 954.03 667.8S989.2 701.7 1024.3 701.7S1060.32 665.93 1094.56 665.93S1134.65 692.2 1164.83 692.2S1202.99 709.91 1235.1 709.91S1273.88 708.71 1305.37 708.71S1344.89 669.46 1375.64 669.46S1415.24 640.5 1445.91 640.5S1484.38 720.8 1516.17 720.8S1555.64 640.97 1586.44 640.97S1625.44 708.33 1656.71 708.33L1645 1125 L-100 1125 Z" fill="#ac4e22" stroke-width="0">
  <animate attributeName="d" dur="5.194805194805195s" repeatCount="indefinite" values="M-100 692.57C-61.87 656.19 -63.46 700.67 -29.73 700.67S11.24 733.31 40.54 733.31S83.03 715.54 110.81 715.54S150.77 697.38 181.07 697.38S219.26 674.17 251.34 674.17S288.85 655.8 321.61 655.8S361.42 640.48 391.88 640.48S432.95 726.94 462.15 726.94S502.98 723.39 532.42 723.39S571.54 646.78 602.68 646.78S640.45 706.21 672.95 706.21S715.08 688.78 743.22 688.78S780.56 697.32 813.49 697.32S850.69 674.18 883.76 674.18S919.9 667.8 954.03 667.8S989.2 701.7 1024.3 701.7S1060.32 665.93 1094.56 665.93S1134.65 692.2 1164.83 692.2S1202.99 709.91 1235.1 709.91S1273.88 708.71 1305.37 708.71S1344.89 669.46 1375.64 669.46S1415.24 640.5 1445.91 640.5S1484.38 720.8 1516.17 720.8S1555.64 640.97 1586.44 640.97S1625.44 708.33 1656.71 708.33L1645 1125 L-100 1125 Z;M-100 732.75C-64.7 727.44 -59.68 653.13 -29.73 653.13S11.85 675.24 40.54 675.24S76.32 708.13 110.81 708.13S152.95 646.97 181.07 646.97S220.64 679.61 251.34 679.61S289.23 668.37 321.61 668.37S359.47 718.58 391.88 718.58S430.02 681.25 462.15 681.25S498.79 685.3 532.42 685.3S568.06 644.04 602.68 644.04S643.22 675.43 672.95 675.43S715.42 684.08 743.22 684.08S783.95 684.01 813.49 684.01S856.02 636.32 883.76 636.32S924.61 678.37 954.03 678.37S989.27 730.71 1024.3 730.71S1063.65 665.3 1094.56 665.3S1132.15 681.2 1164.83 681.2S1203.59 703.52 1235.1 703.52S1275.23 698.66 1305.37 698.66S1344 669.88 1375.64 669.88S1416.7 664.19 1445.91 664.19S1483.08 681.2 1516.17 681.2S1552.8 660.31 1586.44 660.31S1624.49 683.59 1656.71 683.59L1645 1125 L-100 1125 Z;M-100 692.57C-61.87 656.19 -63.46 700.67 -29.73 700.67S11.24 733.31 40.54 733.31S83.03 715.54 110.81 715.54S150.77 697.38 181.07 697.38S219.26 674.17 251.34 674.17S288.85 655.8 321.61 655.8S361.42 640.48 391.88 640.48S432.95 726.94 462.15 726.94S502.98 723.39 532.42 723.39S571.54 646.78 602.68 646.78S640.45 706.21 672.95 706.21S715.08 688.78 743.22 688.78S780.56 697.32 813.49 697.32S850.69 674.18 883.76 674.18S919.9 667.8 954.03 667.8S989.2 701.7 1024.3 701.7S1060.32 665.93 1094.56 665.93S1134.65 692.2 1164.83 692.2S1202.99 709.91 1235.1 709.91S1273.88 708.71 1305.37 708.71S1344.89 669.46 1375.64 669.46S1415.24 640.5 1445.91 640.5S1484.38 720.8 1516.17 720.8S1555.64 640.97 1586.44 640.97S1625.44 708.33 1656.71 708.33L1645 1125 L-100 1125 Z"></animate>
  <animateTransform attributeName="transform" type="translate" dur="5.194805194805195s" begin="-2.886002886002886s" repeatCount="indefinite" values="0;10;0" calcMode="spline" keySplines="0.3 0 0.7 1;0.3 0 0.7 1"></animateTransform>
</path><path d="M-100 720.26C-63.57 707.46 -57.13 734.11 -27.29 734.11S14.33 671.14 45.42 671.14S82.71 739.7 118.13 739.7S156.95 713.76 190.83 713.76S231.12 716.1 263.54 716.1S306.82 705.24 336.25 705.24S374.77 761.82 408.96 761.82S446.3 713.38 481.67 713.38S523.25 741.5 554.38 741.5S595.7 694.94 627.08 694.94S669.16 735.22 699.79 735.22S738.35 722.02 772.5 722.02S813.27 757.11 845.21 757.11S886.02 664.99 917.92 664.99S960.29 674.09 990.63 674.09S1032.11 736.03 1063.33 736.03S1103.99 731.14 1136.04 731.14S1172.8 738.76 1208.75 738.76S1251.32 709.32 1281.46 709.32S1319.19 716.72 1354.17 716.72S1394.67 675.37 1426.88 675.37S1463.62 717.26 1499.58 717.26S1538.42 724.99 1572.29 724.99S1613.6 710.5 1645 710.5S1685.01 707.24 1717.71 707.24L1645 1125 L-100 1125 Z" fill="#c36221" stroke-width="0">
  <animate attributeName="d" dur="3.896103896103896s" repeatCount="indefinite" values="M-100 720.26C-63.57 707.46 -57.13 734.11 -27.29 734.11S14.33 671.14 45.42 671.14S82.71 739.7 118.13 739.7S156.95 713.76 190.83 713.76S231.12 716.1 263.54 716.1S306.82 705.24 336.25 705.24S374.77 761.82 408.96 761.82S446.3 713.38 481.67 713.38S523.25 741.5 554.38 741.5S595.7 694.94 627.08 694.94S669.16 735.22 699.79 735.22S738.35 722.02 772.5 722.02S813.27 757.11 845.21 757.11S886.02 664.99 917.92 664.99S960.29 674.09 990.63 674.09S1032.11 736.03 1063.33 736.03S1103.99 731.14 1136.04 731.14S1172.8 738.76 1208.75 738.76S1251.32 709.32 1281.46 709.32S1319.19 716.72 1354.17 716.72S1394.67 675.37 1426.88 675.37S1463.62 717.26 1499.58 717.26S1538.42 724.99 1572.29 724.99S1613.6 710.5 1645 710.5S1685.01 707.24 1717.71 707.24L1645 1125 L-100 1125 Z;M-100 707.95C-60.68 668.8 -57.46 709.45 -27.29 709.45S13.68 683.55 45.42 683.55S82.96 699.52 118.13 699.52S158.67 672.22 190.83 672.22S227.35 714.05 263.54 714.05S305.65 681.82 336.25 681.82S378.3 760.26 408.96 760.26S445.8 713.83 481.67 713.83S521.52 707.32 554.38 707.32S595.81 720.02 627.08 720.02S667.86 740.92 699.79 740.92S738.41 745.12 772.5 745.12S815.82 727.96 845.21 727.96S887.83 722.87 917.92 722.87S957.13 734.54 990.63 734.54S1031.7 681.58 1063.33 681.58S1105.43 762.27 1136.04 762.27S1174.27 710.97 1208.75 710.97S1245.28 736.92 1281.46 736.92S1322.53 667.06 1354.17 667.06S1391.99 711.93 1426.88 711.93S1464.39 672.99 1499.58 672.99S1536.62 767.88 1572.29 767.88S1611.55 739.01 1645 739.01S1682.22 743.71 1717.71 743.71L1645 1125 L-100 1125 Z;M-100 720.26C-63.57 707.46 -57.13 734.11 -27.29 734.11S14.33 671.14 45.42 671.14S82.71 739.7 118.13 739.7S156.95 713.76 190.83 713.76S231.12 716.1 263.54 716.1S306.82 705.24 336.25 705.24S374.77 761.82 408.96 761.82S446.3 713.38 481.67 713.38S523.25 741.5 554.38 741.5S595.7 694.94 627.08 694.94S669.16 735.22 699.79 735.22S738.35 722.02 772.5 722.02S813.27 757.11 845.21 757.11S886.02 664.99 917.92 664.99S960.29 674.09 990.63 674.09S1032.11 736.03 1063.33 736.03S1103.99 731.14 1136.04 731.14S1172.8 738.76 1208.75 738.76S1251.32 709.32 1281.46 709.32S1319.19 716.72 1354.17 716.72S1394.67 675.37 1426.88 675.37S1463.62 717.26 1499.58 717.26S1538.42 724.99 1572.29 724.99S1613.6 710.5 1645 710.5S1685.01 707.24 1717.71 707.24L1645 1125 L-100 1125 Z"></animate>
  <animateTransform attributeName="transform" type="translate" dur="3.896103896103896s" begin="-2.5974025974025974s" repeatCount="indefinite" values="0;10;0" calcMode="spline" keySplines="0.3 0 0.7 1;0.3 0 0.7 1"></animateTransform>
</path><path d="M-100 697.78C-54.92 714.4 -62.11 759.13 -24.68 759.13S15.43 756.7 50.65 756.7S89.43 719.64 125.97 719.64S165.1 766.8 201.29 766.8S245.08 740.3 276.62 740.3S317.51 742.57 351.94 742.57S390.14 795.14 427.27 795.14S472.39 744.33 502.59 744.33S546.76 779.11 577.91 779.11S618.25 748.07 653.24 748.07S698.42 783.57 728.56 783.57S769.72 711.44 803.88 711.44S847.26 740.8 879.21 740.8S921.63 721.73 954.53 721.73S993.29 763.36 1029.86 763.36S1071.44 781.92 1105.18 781.92S1143.81 754.32 1180.5 754.32S1222.68 762.87 1255.83 762.87S1298.42 745.19 1331.15 745.19S1373.23 741.62 1406.47 741.62S1449.28 709.29 1481.8 709.29S1526.23 801.28 1557.12 801.28S1601.97 749.61 1632.45 749.61S1675.6 745.38 1707.77 745.38L1645 1125 L-100 1125 Z" fill="#d9781d" stroke-width="0">
  <animate attributeName="d" dur="2.5974025974025974s" repeatCount="indefinite" values="M-100 697.78C-54.92 714.4 -62.11 759.13 -24.68 759.13S15.43 756.7 50.65 756.7S89.43 719.64 125.97 719.64S165.1 766.8 201.29 766.8S245.08 740.3 276.62 740.3S317.51 742.57 351.94 742.57S390.14 795.14 427.27 795.14S472.39 744.33 502.59 744.33S546.76 779.11 577.91 779.11S618.25 748.07 653.24 748.07S698.42 783.57 728.56 783.57S769.72 711.44 803.88 711.44S847.26 740.8 879.21 740.8S921.63 721.73 954.53 721.73S993.29 763.36 1029.86 763.36S1071.44 781.92 1105.18 781.92S1143.81 754.32 1180.5 754.32S1222.68 762.87 1255.83 762.87S1298.42 745.19 1331.15 745.19S1373.23 741.62 1406.47 741.62S1449.28 709.29 1481.8 709.29S1526.23 801.28 1557.12 801.28S1601.97 749.61 1632.45 749.61S1675.6 745.38 1707.77 745.38L1645 1125 L-100 1125 Z;M-100 736.57C-62.13 707.18 -57.6 759.3 -24.68 759.3S13.09 696.26 50.65 696.26S94.41 787.1 125.97 787.1S170.75 698.75 201.29 698.75S242.43 713.63 276.62 713.63S321.85 756.53 351.94 756.53S394.66 799.22 427.27 799.22S471.46 780.55 502.59 780.55S544.99 756.12 577.91 756.12S617.94 710.92 653.24 710.92S692.99 783.6 728.56 783.6S767.11 696.4 803.88 696.4S847.16 779.26 879.21 779.26S924.05 758.39 954.53 758.39S994.33 765.23 1029.86 765.23S1070.22 739.43 1105.18 739.43S1146.21 734.24 1180.5 734.24S1220.67 726.27 1255.83 726.27S1294.17 756.13 1331.15 756.13S1371.43 710.85 1406.47 710.85S1449.24 755.15 1481.8 755.15S1524.54 719.35 1557.12 719.35S1596.34 752.31 1632.45 752.31S1675.01 736.47 1707.77 736.47L1645 1125 L-100 1125 Z;M-100 697.78C-54.92 714.4 -62.11 759.13 -24.68 759.13S15.43 756.7 50.65 756.7S89.43 719.64 125.97 719.64S165.1 766.8 201.29 766.8S245.08 740.3 276.62 740.3S317.51 742.57 351.94 742.57S390.14 795.14 427.27 795.14S472.39 744.33 502.59 744.33S546.76 779.11 577.91 779.11S618.25 748.07 653.24 748.07S698.42 783.57 728.56 783.57S769.72 711.44 803.88 711.44S847.26 740.8 879.21 740.8S921.63 721.73 954.53 721.73S993.29 763.36 1029.86 763.36S1071.44 781.92 1105.18 781.92S1143.81 754.32 1180.5 754.32S1222.68 762.87 1255.83 762.87S1298.42 745.19 1331.15 745.19S1373.23 741.62 1406.47 741.62S1449.28 709.29 1481.8 709.29S1526.23 801.28 1557.12 801.28S1601.97 749.61 1632.45 749.61S1675.6 745.38 1707.77 745.38L1645 1125 L-100 1125 Z"></animate>
  <animateTransform attributeName="transform" type="translate" dur="2.5974025974025974s" begin="-2.02020202020202s" repeatCount="indefinite" values="0;10;0" calcMode="spline" keySplines="0.3 0 0.7 1;0.3 0 0.7 1"></animateTransform>
</path><path d="M-100 753.52C-59.02 787.23 -60.31 813.24 -21.87 813.24S23.79 743.82 56.27 743.82S96.41 811.92 134.4 811.92S176.92 739.59 212.54 739.59S251.75 771.1 290.67 771.1S334.85 795.98 368.81 795.98S415.29 785.77 446.94 785.77S488.23 818.47 525.07 818.47S565.83 784.27 603.21 784.27S646.96 769.5 681.34 769.5S723.9 756.42 759.48 756.42S805.73 742.45 837.61 742.45S878.66 792.72 915.75 792.72S960.81 828.28 993.88 828.28S1039.34 798.82 1072.01 798.82S1113.43 793.83 1150.15 793.83S1194.63 799.22 1228.28 799.22S1274.7 783.56 1306.42 783.56S1348.47 836.18 1384.55 836.18S1428.21 757.02 1462.69 757.02S1507.14 759.24 1540.82 759.24S1581.7 733.8 1618.96 733.8S1662.33 833.34 1697.09 833.34L1645 1125 L-100 1125 Z" fill="#ed8f15" stroke-width="0">
  <animate attributeName="d" dur="1.2987012987012987s" repeatCount="indefinite" values="M-100 753.52C-59.02 787.23 -60.31 813.24 -21.87 813.24S23.79 743.82 56.27 743.82S96.41 811.92 134.4 811.92S176.92 739.59 212.54 739.59S251.75 771.1 290.67 771.1S334.85 795.98 368.81 795.98S415.29 785.77 446.94 785.77S488.23 818.47 525.07 818.47S565.83 784.27 603.21 784.27S646.96 769.5 681.34 769.5S723.9 756.42 759.48 756.42S805.73 742.45 837.61 742.45S878.66 792.72 915.75 792.72S960.81 828.28 993.88 828.28S1039.34 798.82 1072.01 798.82S1113.43 793.83 1150.15 793.83S1194.63 799.22 1228.28 799.22S1274.7 783.56 1306.42 783.56S1348.47 836.18 1384.55 836.18S1428.21 757.02 1462.69 757.02S1507.14 759.24 1540.82 759.24S1581.7 733.8 1618.96 733.8S1662.33 833.34 1697.09 833.34L1645 1125 L-100 1125 Z;M-100 800.91C-60.25 824.41 -53.47 823.62 -21.87 823.62S19.16 781.6 56.27 781.6S102.66 833.58 134.4 833.58S178.15 757.25 212.54 757.25S252.11 815.15 290.67 815.15S330.5 803.1 368.81 803.1S413.32 782.97 446.94 782.97S491.89 784.39 525.07 784.39S567.31 764.63 603.21 764.63S648.94 779.17 681.34 779.17S720.45 820.27 759.48 820.27S803.03 797.82 837.61 797.82S877.95 748.71 915.75 748.71S957.75 832.19 993.88 832.19S1035.17 792.73 1072.01 792.73S1114.3 741.81 1150.15 741.81S1191.03 810.89 1228.28 810.89S1269.39 814.04 1306.42 814.04S1348.14 803.62 1384.55 803.62S1424.08 752.81 1462.69 752.81S1506.8 768 1540.82 768S1587.26 819.82 1618.96 819.82S1662.77 818.21 1697.09 818.21L1645 1125 L-100 1125 Z;M-100 753.52C-59.02 787.23 -60.31 813.24 -21.87 813.24S23.79 743.82 56.27 743.82S96.41 811.92 134.4 811.92S176.92 739.59 212.54 739.59S251.75 771.1 290.67 771.1S334.85 795.98 368.81 795.98S415.29 785.77 446.94 785.77S488.23 818.47 525.07 818.47S565.83 784.27 603.21 784.27S646.96 769.5 681.34 769.5S723.9 756.42 759.48 756.42S805.73 742.45 837.61 742.45S878.66 792.72 915.75 792.72S960.81 828.28 993.88 828.28S1039.34 798.82 1072.01 798.82S1113.43 793.83 1150.15 793.83S1194.63 799.22 1228.28 799.22S1274.7 783.56 1306.42 783.56S1348.47 836.18 1384.55 836.18S1428.21 757.02 1462.69 757.02S1507.14 759.24 1540.82 759.24S1581.7 733.8 1618.96 733.8S1662.33 833.34 1697.09 833.34L1645 1125 L-100 1125 Z"></animate>
  <animateTransform attributeName="transform" type="translate" dur="1.2987012987012987s" begin="-1.1544011544011543s" repeatCount="indefinite" values="0;10;0" calcMode="spline" keySplines="0.3 0 0.7 1;0.3 0 0.7 1"></animateTransform>
</path></g>
</svg>